{"title":"Kicha (2012) Telugu Movie SCREENER MP4 - Exclusive","uid":7961863,"size":2243682372,"categoryP":"video","categoryS":"movies","magnet":"?xt=urn:btih:f3686557132059793df939bb42c3a82a40fc0eee&amp;dn=Kicha+%282012%29+Telugu+Movie+SCREENER+MP4+-+Exclusive&amp;tr=udp%3A%2F%2Ftracker.openbittorrent.com%3A80&amp;tr=udp%3A%2F%2Fopen.demonii.com%3A1337&amp;tr=udp%3A%2F%2Ftracker.coppersurfer.tk%3A6969&amp;tr=udp%3A%2F%2Fexodus.desync.com%3A6969","seeders":0,"leechers":1,"uploader":"tykoon123","files":-1,"time":1356603438,"description":"Poster: &lt;a href=&quot;\nhttp://imgr.us/images/b2vh948vaeaixe5wd4qj.jpg&quot; rel=&quot;nofollow&quot; target=&quot;_NEW&quot;&gt;\nhttp://imgr.us/images/b2vh948vaeaixe5wd4qj.jpg&lt;/a&gt;\n\nInfo:\n\nFormat : MPEG-4\nFormat profile : Base Media\nCodec ID : isom\nFile size : 2.09 GiB\nDuration : 2h 17mn\nOverall bit rate : 2 178 Kbps\nWriting application : Lavf53.24.0\n\nVideo\nID : 1\nFormat : AVC\nFormat/Info : Advanced Video Codec\nFormat profile : &lt;a class=&quot;__cf_email__&quot; href=&quot;/cdn-cgi/l/email-protection&quot; data-cfemail=&quot;9dd0fcf4f3ddd1a9b3ac&quot;&gt;[email&amp;#160;protected]&lt;/a&gt;&lt;script cf-hash='f9e31' type=&quot;text/javascript&quot;&gt;\n/* &lt;![CDATA[ */!function(){try{var t=&quot;currentScript&quot;in document?document.currentScript:function(){for(var t=document.getElementsByTagName(&quot;script&quot;),e=t.length;e--;)if(t[e].getAttribute(&quot;cf-hash&quot;))return t[e]}();if(t&amp;&amp;t.previousSibling){var e,r,n,i,c=t.previousSibling,a=c.getAttribute(&quot;data-cfemail&quot;);if(a){for(e=&quot;&quot;,r=parseInt(a.substr(0,2),16),n=2;a.length-n;n+=2)i=parseInt(a.substr(n,2),16)^r,e+=String.fromCharCode(i);e=document.createTextNode(e),c.parentNode.replaceChild(e,c)}}}catch(u){}}();/* ]]&gt; */&lt;/script&gt;\nFormat settings, CABAC : Yes\nFormat settings, ReFrames : 3 frames\nCodec ID : avc1\nCodec ID/Info : Advanced Video Coding\nDuration : 2h 17mn\nBit rate : 1 981 Kbps\nWidth : 1 280 pixels\nHeight : 720 pixels\nDisplay aspect ratio : 16:9\nFrame rate mode : Constant\nFrame rate : 23.976 fps\nColor space : YUV\nChroma subsampling : 4:2:0\nBit depth : 8 bits\nScan type : Progressive\nBits/(Pixel*Frame) : 0.090\nStream size : 1.90 GiB (91%)\nWriting library : x264 core 118 r2085 8a62835\nLanguage : Telugu\n\nAudio\nID : 2\nFormat : AAC\nFormat/Info : Advanced Audio Codec\nFormat profile : LC\nCodec ID : 40\nDuration : 2h 17mn\nBit rate mode : Constant\nBit rate : 192 Kbps\nChannel(s) : 2 channels\nChannel positions : Front: L R\nSampling rate : 48.0 KHz\nCompression mode : Lossy\nDelay relative to video : 42ms\nStream size : 189 MiB (9%)\nLanguage : Telugu\n\n\nScreens: &lt;a href=&quot;\nhttp://imgr.us/images/54a0ynyamnbn0iz2cvb.png&quot; rel=&quot;nofollow&quot; target=&quot;_NEW&quot;&gt;\nhttp://imgr.us/images/54a0ynyamnbn0iz2cvb.png&lt;/a&gt; &lt;a href=&quot;\nhttp://imgr.us/images/tas5687v0u3bwpjpd08t.png&quot; rel=&quot;nofollow&quot; target=&quot;_NEW&quot;&gt;\nhttp://imgr.us/images/tas5687v0u3bwpjpd08t.png&lt;/a&gt; &lt;a href=&quot;\nhttp://imgr.us/images/1sya1m79l42qxlwwovmh.png&quot; rel=&quot;nofollow&quot; target=&quot;_NEW&quot;&gt;\nhttp://imgr.us/images/1sya1m79l42qxlwwovmh.png&lt;/a&gt; &lt;a href=&quot;\nhttp://imgr.us/images/ntb8f15zoivgl5whoj.png&quot; rel=&quot;nofollow&quot; target=&quot;_NEW&quot;&gt;\nhttp://imgr.us/images/ntb8f15zoivgl5whoj.png&lt;/a&gt; &lt;a href=&quot;\nhttp://imgr.us/images/nahc6thegt1mrzwbio.png&quot; rel=&quot;nofollow&quot; target=&quot;_NEW&quot;&gt;\nhttp://imgr.us/images/nahc6thegt1mrzwbio.png&lt;/a&gt; &lt;a href=&quot;\nhttp://imgr.us/images/m6yclw3jv2egkpr54jm0.png&quot; rel=&quot;nofollow&quot; target=&quot;_NEW&quot;&gt;\nhttp://imgr.us/images/m6yclw3jv2egkpr54jm0.png&lt;/a&gt;\n\n\n\n\n\n\n","torrent":{"xt":"urn:btih:f3686557132059793df939bb42c3a82a40fc0eee","amp;dn":"Kicha+%282012%29+Telugu+Movie+SCREENER+MP4+-+Exclusive","amp;tr":["udp%3A%2F%2Ftracker.openbittorrent.com%3A80","udp%3A%2F%2Fopen.demonii.com%3A1337","udp%3A%2F%2Ftracker.coppersurfer.tk%3A6969","udp%3A%2F%2Fexodus.desync.com%3A6969"],"infoHash":"f3686557132059793df939bb42c3a82a40fc0eee","infoHashBuffer":{"type":"Buffer","data":[243,104,101,87,19,32,89,121,61,249,57,187,66,195,168,42,64,252,14,238]},"announce":[],"urlList":[]}}